# xmcd CD database file
#
# Track frame offsets:
#	150
#	20610
#	33710
#	45307
#	61162
#	83270
#	94262
#	106775
#	123627
#	137325
#
# Disc length: 1986 seconds
#
# Revision: 3
# Processed by: cddbd v1.5.1PL2 Copyright (c) Steve Scherf et al.
# Submitted via: CDex 1.51
#
DISCID=7307c00a
DTITLE=Aaron Tippin - Call Of The Wild
DYEAR=1900
DGENRE=
TTITLE0=The Call Of The Wild
TTITLE1=Honky-Tonk Superman
TTITLE2=Nothin' In The World
TTITLE3=Workin' Man's Ph.D.
TTITLE4=I Promised You The World
TTITLE5=When Country Took The Throne
TTITLE6=Let's Talk About You
TTITLE7=Whole Lotta Love On The Line
TTITLE8=My Kind Of Town
TTITLE9=Trim Yourself To Fit The World
EXTD=
EXTT0=
EXTT1=
EXTT2=
EXTT3=
EXTT4=
EXTT5=
EXTT6=
EXTT7=
EXTT8=
EXTT9=
PLAYORDER=
